<svg width="28" height="28" viewBox="0 0 28 28" fill="none" xmlns="http://www.w3.org/2000/svg">
<g clip-path="url(#clip0_1036_12322)">
<circle cx="13.9906" cy="13.9574" r="13.2777" fill="url(#paint0_linear_1036_12322)"/>
<path d="M18.0568 9.8132C18.2466 10.0027 18.1736 10.4374 18.0812 10.9338C17.9888 11.4303 17.6982 12.0884 17.6156 12.1611C17.5331 12.2337 17.3029 12.1424 17.3029 12.1424C17.1586 12.809 16.8631 13.4335 16.439 13.9677C16.4196 13.9914 16.3999 14.0155 16.3796 14.0393C16.3592 14.0631 16.3432 14.0818 16.3245 14.1032C16.2848 14.1476 16.2441 14.1918 16.2013 14.2353C16.1884 14.2488 16.1751 14.2621 16.1619 14.2753L16.1215 14.3151C15.1557 15.2455 14.3723 15.4968 13.7627 15.4601L13.7199 15.4567C13.7057 15.4567 13.6918 15.454 13.6771 15.4523C13.6625 15.4506 13.6462 15.4486 13.6306 15.4462L13.617 15.4445L13.5865 15.4411H13.5827L13.5342 15.4323L13.4904 15.4231H13.4843C13.4163 15.4086 13.3464 15.3899 13.2744 15.3671C13.2561 15.3616 13.2377 15.3555 13.2194 15.3491H13.2136L13.164 15.3314C13.1267 15.3185 13.089 15.3039 13.0506 15.2883C13.0316 15.2805 13.0126 15.2727 12.9936 15.2642L12.9372 15.2387C12.9182 15.2302 12.8995 15.2214 12.8805 15.2122L12.852 15.1983L12.8234 15.184C12.8044 15.1745 12.7854 15.1647 12.7667 15.1545L12.7633 15.1528C12.7436 15.1426 12.7243 15.1318 12.7046 15.1205L12.6754 15.1039L12.6462 15.0869C12.6265 15.0754 12.6068 15.0635 12.5874 15.0513C12.5745 15.0438 12.562 15.036 12.5494 15.0275L12.5287 15.0143C12.512 15.0034 12.4947 14.9925 12.4784 14.9803L12.4716 14.9755L12.4608 14.9681C12.4492 14.9603 12.4377 14.9525 12.4268 14.944C12.4007 14.9256 12.3745 14.9063 12.3487 14.8866C12.3321 14.8743 12.3147 14.8621 12.2998 14.8492C12.2987 14.848 12.2975 14.847 12.2961 14.8462C12.2818 14.835 12.2679 14.8234 12.254 14.8122L12.2373 14.799C12.2214 14.7857 12.2057 14.7721 12.1901 14.7585L12.1813 14.7507C12.1473 14.7205 12.1134 14.6893 12.0794 14.6567C12.0781 14.6555 12.0768 14.6543 12.0757 14.6529C12.0668 14.6448 12.0584 14.6366 12.0499 14.6278C12.0414 14.619 12.0325 14.6108 12.0241 14.602C12.001 14.5786 11.9779 14.5548 11.9561 14.5304C11.9446 14.5181 11.9337 14.5059 11.9222 14.493C11.9106 14.4801 11.9001 14.4682 11.8882 14.4553L11.8543 14.4169L11.8223 14.3775C11.801 14.3507 11.7802 14.3235 11.7599 14.296C11.7188 14.241 11.6797 14.1836 11.642 14.1239C11.6318 14.1079 11.622 14.0899 11.6121 14.075L11.5894 14.0366L11.5816 14.023C11.5748 14.0108 11.5677 13.9989 11.5612 13.9863C11.5386 13.9436 11.5159 13.8997 11.4933 13.8549L11.4766 13.821C11.462 13.7904 11.4474 13.7602 11.4335 13.73C11.4152 13.6909 11.3975 13.6522 11.3802 13.6138C10.9377 12.6382 10.8019 11.9726 10.8019 11.9726C10.8019 11.9726 10.5425 12.1139 10.4368 12.0446C10.3312 11.9753 10.2586 11.6103 10.0888 11.3023C9.91898 10.9943 9.73493 10.1358 9.86329 9.82984C9.99165 9.52387 10.2538 9.3422 10.4623 9.53236C10.3238 9.23047 9.90642 8.18558 9.96415 7.68707C10.0219 7.18856 9.99539 5.80611 10.7812 5.25701C11.567 4.7079 12.0645 4.26746 12.8866 4.67734C12.8866 4.67734 13.9363 3.65859 15.315 4.21109C16.6937 4.7636 17.6476 5.33919 17.9298 6.10902C18.2119 6.87886 18.2445 7.95432 18.0656 8.57915C17.8897 9.19414 17.7158 9.77483 17.7107 9.79282C17.7226 9.7823 17.8727 9.62982 18.0568 9.8132Z" fill="white"/>
<path d="M13.0508 15.2812C13.0892 15.2965 13.1268 15.3111 13.1642 15.3244C13.1268 15.3115 13.0892 15.2969 13.0508 15.2812Z" fill="#F2F2F2"/>
<path d="M13.2744 15.3633C13.3471 15.386 13.4174 15.4047 13.4843 15.4193C13.4168 15.4048 13.3469 15.3861 13.2744 15.3633Z" fill="#F2F2F2"/>
<!-- <path d="M26.8988 8.54928C26.1078 6.67257 24.9171 4.99096 23.4095 3.62172C21.9019 2.25247 20.1138 1.22854 18.1699 0.621309C16.2259 0.0140832 14.1729 -0.161819 12.154 0.105865C10.1351 0.37355 8.1989 1.07838 6.48036 2.17121C4.76183 3.26404 3.30235 4.71856 2.20368 6.43337C1.10501 8.14818 0.393594 10.082 0.119043 12.1C-0.155508 14.118 0.0134107 16.1715 0.61402 18.1175C1.21463 20.0635 2.23247 21.8551 3.59658 23.3673C3.63054 23.406 3.6662 23.4448 3.7022 23.4828C3.83192 23.6238 3.96481 23.7624 4.10087 23.8984C5.40007 25.1997 6.94308 26.232 8.64163 26.9363C10.3402 27.6407 12.1609 28.0032 13.9997 28.0032C15.8385 28.0032 17.6593 27.6407 19.3578 26.9363C21.0564 26.232 22.5994 25.1997 23.8986 23.8984C24.0344 23.7626 24.1673 23.6241 24.2972 23.4828C24.3329 23.4448 24.3679 23.406 24.4025 23.3673C26.1824 21.3892 27.3624 18.9452 27.8044 16.3211C28.2464 13.697 27.9321 11.0013 26.8985 8.54928H26.8988ZM24.2018 22.4274C23.8245 22.8832 23.4173 23.3134 22.9831 23.7154C20.5395 25.98 17.3308 27.2382 13.9992 27.2382C10.6676 27.2382 7.45893 25.98 5.01536 23.7154C4.58112 23.3134 4.17397 22.8832 3.7966 22.4274C1.8314 20.0586 0.75713 17.0768 0.760045 13.9989C0.760045 6.69787 6.69902 0.759576 13.9994 0.759576C21.2997 0.759576 27.2384 6.69889 27.2384 13.9989C27.2416 17.0766 26.1677 20.0584 24.2028 22.4274H24.2018Z" fill="#F2F2F2"/> -->
<path d="M24.2021 22.4268C23.8247 22.8825 23.4176 23.3128 22.9833 23.7148C20.5398 25.9794 17.3311 27.2376 13.9995 27.2376C10.6679 27.2376 7.4592 25.9794 5.01564 23.7148C4.58139 23.3128 4.17425 22.8825 3.79688 22.4268C4.02575 21.3761 4.32595 20.069 4.50219 19.5807C4.76027 18.8652 5.09306 18.508 5.52637 18.2132C6.15766 17.9334 7.33024 17.4603 8.17173 17.1201C8.43456 17.0382 8.6682 16.9717 8.84003 16.9303C9.54466 16.7605 10.4279 16.2891 11.0473 15.8456C11.5255 15.5033 11.5275 14.5494 11.5567 13.9779C11.5635 13.9905 11.5703 14.0024 11.5774 14.0146L11.5852 14.0282L11.608 14.0665C11.6178 14.0828 11.6277 14.1005 11.6379 14.1154C11.6752 14.1752 11.7145 14.2326 11.7557 14.2876C11.7761 14.3151 11.7968 14.3423 11.8182 14.3691L11.8501 14.4085L11.8841 14.4469C11.8953 14.4598 11.9061 14.4724 11.918 14.4846C11.9299 14.4968 11.9401 14.5097 11.952 14.5219C11.9744 14.5464 11.9975 14.5702 12.0199 14.5936C12.0284 14.6024 12.0369 14.6109 12.0457 14.6194C12.0545 14.6279 12.0627 14.6367 12.0715 14.6445C12.0727 14.6458 12.0739 14.6471 12.0752 14.6483C12.1092 14.6822 12.1432 14.7121 12.1771 14.7423L12.1859 14.7501C12.2016 14.7637 12.2172 14.7773 12.2331 14.7905L12.2498 14.8038C12.2637 14.8153 12.2776 14.8269 12.2919 14.8377C12.2933 14.8386 12.2946 14.8396 12.2956 14.8408C12.3119 14.8537 12.3296 14.8659 12.3445 14.8782C12.3703 14.8978 12.3965 14.9172 12.4226 14.9355C12.4342 14.944 12.4457 14.9518 12.4566 14.9597L12.4675 14.9671L12.4742 14.9719C12.4909 14.9834 12.5082 14.9943 12.5245 15.0058L12.5452 15.0191C12.5578 15.0276 12.5703 15.0354 12.5833 15.0428C12.6026 15.0551 12.6223 15.067 12.642 15.0785L12.6712 15.0955C12.6807 15.1013 12.6909 15.107 12.7004 15.1121C12.7201 15.1233 12.7395 15.1342 12.7592 15.1444L12.7626 15.1461C12.7812 15.1563 12.8002 15.1661 12.8193 15.1756L12.8478 15.1899L12.8763 15.2038C12.8953 15.213 12.914 15.2218 12.933 15.2303L12.9894 15.2558C13.0084 15.2643 13.0274 15.2721 13.0464 15.2799C13.0848 15.2955 13.1225 15.3101 13.1599 15.323L13.2094 15.3407H13.2152C13.2336 15.3471 13.2519 15.3532 13.2702 15.3587C13.3429 15.3813 13.4129 15.4 13.4801 15.4147H13.4862L13.53 15.4239C13.5463 15.4273 13.564 15.43 13.5786 15.4327H13.5823L13.6132 15.4378L13.6268 15.4395C13.6424 15.4419 13.658 15.4442 13.6733 15.4456C13.6886 15.447 13.7018 15.449 13.7161 15.45L13.7589 15.4534C14.3684 15.4901 15.1512 15.2388 16.1176 14.3083C16.1316 14.2954 16.1451 14.2818 16.158 14.2686C16.171 14.2554 16.1845 14.2421 16.1974 14.2285C16.2402 14.1851 16.281 14.1409 16.3207 14.0964C16.3394 14.075 16.3577 14.054 16.3757 14.0326C16.3937 14.0112 16.4158 13.9847 16.4351 13.9609C16.4552 14.5267 16.4076 15.4721 16.9472 15.8405C17.5772 16.2704 18.4502 16.7547 19.1545 16.9252C19.3264 16.9666 19.5597 17.0331 19.8228 17.115C20.6643 17.4546 21.8369 17.93 22.4682 18.2081C22.9015 18.5029 23.2343 18.8601 23.4924 19.5756C23.672 20.069 23.9732 21.3764 24.2021 22.4268Z" fill="white"/>
</g>
<defs>
<linearGradient id="paint0_linear_1036_12322" x1="0.712891" y1="13.9574" x2="24.9626" y2="13.9574" gradientUnits="userSpaceOnUse">
<stop stop-color="white"/>
<stop offset="0.0001" stop-color="#F2F2F2"/>
<stop offset="1" stop-color="#F2F2F2" stop-opacity="0.96"/>
</linearGradient>
<clipPath id="clip0_1036_12322">
<rect width="28" height="28" fill="white"/>
</clipPath>
</defs>
</svg>
