<svg width="155" height="155" viewBox="0 0 155 155" fill="none" xmlns="http://www.w3.org/2000/svg">
<g clip-path="url(#clip0_1048_16634)">
<rect width="155" height="155" fill="url(#paint0_linear_1048_16634)"/>
<path d="M107.517 63.4887C108.944 64.9451 108.395 68.286 107.701 72.102C107.006 75.9179 104.82 80.9763 104.2 81.5348C103.579 82.0934 101.848 81.3912 101.848 81.3912C100.763 86.5148 98.5407 91.3149 95.3519 95.4204C95.2063 95.6031 95.0582 95.7885 94.905 95.9712C94.7518 96.1539 94.6318 96.2974 94.4914 96.4619C94.1926 96.8038 93.8862 97.1431 93.5644 97.4772C93.4674 97.5816 93.3678 97.6834 93.2682 97.7852L92.9644 98.0905C85.7023 105.242 79.8114 107.174 75.2279 106.892L74.9061 106.866C74.7989 106.866 74.6942 106.845 74.5844 106.832C74.4746 106.819 74.352 106.803 74.2345 106.785L74.1324 106.772L73.9026 106.746H73.8745L73.5094 106.678L73.18 106.607H73.134C72.6233 106.496 72.0973 106.352 71.5559 106.177C71.4181 106.135 71.2802 106.088 71.1423 106.038H71.0989L70.7261 105.903C70.4452 105.803 70.1617 105.691 69.8732 105.571C69.7302 105.511 69.5872 105.451 69.4442 105.386L69.0203 105.19C68.8773 105.125 68.7369 105.057 68.5939 104.986L68.3794 104.879L68.1649 104.77C68.0219 104.697 67.8789 104.621 67.7385 104.543L67.7129 104.53C67.5648 104.451 67.4193 104.368 67.2712 104.282L67.0516 104.154L66.832 104.023C66.6839 103.935 66.5358 103.843 66.3902 103.749C66.2932 103.692 66.1987 103.632 66.1043 103.566L65.9485 103.465C65.8234 103.381 65.6931 103.298 65.5706 103.204L65.5195 103.167L65.4378 103.11C65.351 103.05 65.2641 102.99 65.1824 102.924C64.9858 102.783 64.7892 102.635 64.5951 102.483C64.47 102.389 64.3398 102.295 64.2274 102.196C64.2194 102.187 64.2099 102.179 64.1993 102.173C64.0921 102.087 63.9874 101.998 63.8827 101.912L63.7576 101.81C63.6376 101.708 63.5201 101.604 63.4027 101.499L63.3363 101.439C63.0809 101.207 62.8256 100.967 62.5702 100.716C62.5602 100.707 62.5508 100.698 62.5421 100.688C62.4757 100.625 62.4119 100.562 62.3481 100.494C62.2842 100.427 62.2178 100.364 62.154 100.296C61.9804 100.116 61.8067 99.9333 61.6433 99.7454C61.5565 99.6514 61.4748 99.5574 61.388 99.4582C61.3011 99.359 61.222 99.2677 61.1326 99.1685L60.8773 98.8736L60.6372 98.5708C60.4764 98.3646 60.3206 98.1558 60.1674 97.9444C59.8584 97.5216 59.5648 97.0804 59.2813 96.6211C59.2047 96.4984 59.1307 96.3601 59.0566 96.2452L58.8855 95.9503L58.8268 95.8459C58.7757 95.7519 58.7221 95.6606 58.6736 95.564C58.5034 95.2351 58.3331 94.8984 58.1629 94.5539L58.0378 94.2929C57.928 94.058 57.8182 93.8257 57.7135 93.5934C57.5756 93.2932 57.4428 92.9957 57.3126 92.7007C53.9854 85.202 52.964 80.0862 52.964 80.0862C52.964 80.0862 51.0131 81.172 50.219 80.6395C49.4249 80.1071 48.8784 77.3013 47.6017 74.9339C46.3249 72.5666 44.9409 65.9683 45.9062 63.6166C46.8714 61.2649 48.8427 59.8685 50.4105 61.3302C49.3687 59.0098 46.2305 50.9786 46.6646 47.147C47.0987 43.3154 46.8995 32.6897 52.8082 28.4692C58.717 24.2487 62.4579 20.8635 68.6399 24.0138C68.6399 24.0138 76.5327 16.1836 86.8998 20.4302C97.267 24.6768 104.44 29.1008 106.562 35.0179C108.684 40.935 108.929 49.2011 107.583 54.0037C106.26 58.7305 104.953 63.1938 104.915 63.3321C105.004 63.2512 106.133 62.0793 107.517 63.4887Z" fill="white"/>
<path d="M155 159.933C152.115 163.429 149.002 166.73 145.682 169.813C127.001 187.183 102.47 196.833 77 196.833C51.5296 196.833 26.9989 187.183 8.31757 169.813C4.9977 166.73 1.88504 163.429 -1 159.933C0.749804 151.875 3.0448 141.85 4.3922 138.104C6.36527 132.616 8.9095 129.876 12.2222 127.615C17.0484 125.469 26.0129 121.841 32.4462 119.231C34.4556 118.603 36.2417 118.093 37.5554 117.775C42.9424 116.473 49.695 112.857 54.4304 109.456C58.0857 106.83 58.1013 99.5138 58.3246 95.1302C58.3765 95.2266 58.4285 95.3178 58.483 95.4116L58.5427 95.5157L58.7166 95.81C58.7919 95.9351 58.8672 96.0705 58.9451 96.1851C59.2307 96.6435 59.5309 97.0837 59.8459 97.5057C60.0017 97.7166 60.1601 97.925 60.3236 98.1308L60.5677 98.4329L60.8273 98.7272C60.913 98.8262 60.996 98.9226 61.0869 99.0164C61.1778 99.1101 61.2556 99.2091 61.3465 99.3029C61.5179 99.4904 61.6944 99.6727 61.8657 99.8524C61.9306 99.9202 61.9956 99.9853 62.0631 100.05C62.1306 100.115 62.1929 100.183 62.2604 100.243C62.2692 100.253 62.2788 100.263 62.2889 100.272C62.5485 100.532 62.8081 100.761 63.0678 100.993L63.1353 101.053C63.2547 101.157 63.3741 101.262 63.4961 101.363L63.6233 101.465C63.7298 101.553 63.8362 101.642 63.9453 101.725C63.956 101.731 63.9656 101.739 63.9738 101.749C64.0984 101.848 64.2334 101.941 64.3477 102.035C64.545 102.186 64.7449 102.335 64.9448 102.475C65.033 102.54 65.1213 102.6 65.2044 102.66L65.2875 102.718L65.3394 102.754C65.4666 102.843 65.599 102.926 65.7236 103.014L65.882 103.116C65.9781 103.181 66.0741 103.241 66.1728 103.298C66.3207 103.392 66.4713 103.483 66.6219 103.572L66.8452 103.702C66.9178 103.746 66.9957 103.791 67.0684 103.83C67.219 103.916 67.367 103.999 67.5176 104.077L67.5435 104.09C67.6863 104.168 67.8317 104.244 67.9771 104.317L68.1952 104.426L68.4132 104.533C68.5586 104.603 68.7014 104.671 68.8468 104.736L69.2777 104.931C69.4231 104.997 69.5685 105.057 69.7139 105.116C70.0073 105.236 70.2954 105.348 70.581 105.447L70.9601 105.583H71.0042C71.1444 105.632 71.2846 105.679 71.4248 105.721C71.9803 105.894 72.5151 106.038 73.0292 106.15H73.0759L73.4108 106.221C73.5354 106.247 73.6704 106.268 73.7821 106.288H73.8106L74.0469 106.328L74.1507 106.341C74.2701 106.359 74.3896 106.377 74.5064 106.387C74.6232 106.398 74.7245 106.414 74.8335 106.421L75.1606 106.447C79.8207 106.729 85.8048 104.801 93.1935 97.6645C93.2999 97.5656 93.4038 97.4614 93.5024 97.3598C93.6011 97.2582 93.7049 97.1566 93.8036 97.0525C94.1307 96.7191 94.4422 96.3805 94.746 96.0392C94.8888 95.8752 95.029 95.7137 95.1665 95.5496C95.3041 95.3855 95.4729 95.1823 95.6209 95C95.774 99.3393 95.4106 106.591 99.5359 109.417C104.352 112.714 111.026 116.428 116.411 117.736C117.724 118.054 119.508 118.564 121.52 119.192C127.953 121.796 136.918 125.443 141.744 127.576C145.057 129.837 147.601 132.577 149.574 138.065C150.947 141.85 153.25 151.877 155 159.933Z" fill="white"/>
</g>
<defs>
<linearGradient id="paint0_linear_1048_16634" x1="-3.90846e-10" y1="77.5" x2="141.542" y2="77.5" gradientUnits="userSpaceOnUse">
<stop stop-color="white"/>
<stop offset="0.0001" stop-color="#F2F2F2"/>
<stop offset="1" stop-color="#F2F2F2" stop-opacity="0.96"/>
</linearGradient>
<clipPath id="clip0_1048_16634">
<rect width="155" height="155" fill="white"/>
</clipPath>
</defs>
</svg>
