<svg width="163" height="163" viewBox="0 0 163 163" fill="none" xmlns="http://www.w3.org/2000/svg">
<path fill-rule="evenodd" clip-rule="evenodd" d="M115.723 12.6326C111.714 6.66149 102.901 6.74849 99.0107 12.7976L59.9105 73.5908C55.6302 80.2458 60.4084 89.0002 68.321 89.0002H148.24C156.242 89.0002 161.003 80.0691 156.542 73.4258L115.723 12.6326ZM107.5 29.9997C109.525 29.9997 111.167 31.6413 111.167 33.6663V51.9997C111.167 54.0247 109.525 55.6663 107.5 55.6663C105.475 55.6663 103.833 54.0247 103.833 51.9997V33.6663C103.833 31.6413 105.475 29.9997 107.5 29.9997ZM107.5 73.9997C110.538 73.9997 113 71.5373 113 68.4997C113 65.4622 110.538 62.9997 107.5 62.9997C104.462 62.9997 102 65.4622 102 68.4997C102 71.5373 104.462 73.9997 107.5 73.9997Z" fill="url(#paint0_linear_2577_10903)"/>
<path d="M88.918 95.3076L108.566 106.651L119.91 87.0034" stroke="#2540D9" stroke-width="7.5625" stroke-linecap="round" stroke-linejoin="round"/>
<path d="M51.737 55.3392C57.0109 53.9219 62.5125 53.5583 67.9271 54.2691C73.3417 54.98 78.5631 56.7513 83.2925 59.4818C88.0219 62.2124 92.1666 65.8485 95.4895 70.1823C98.8124 74.516 101.248 79.4624 102.658 84.7384L108.564 106.65" stroke="#2540D9" stroke-width="7.5625" stroke-linecap="round" stroke-linejoin="round"/>
<path d="M46.0815 91.6924L26.4336 80.3486L15.0898 99.9966" stroke="#2540D9" stroke-width="7.5625" stroke-linecap="round" stroke-linejoin="round"/>
<path d="M83.2603 131.659C77.9864 133.077 72.4847 133.44 67.0701 132.729C61.6555 132.019 56.4342 130.247 51.7048 127.517C46.9754 124.786 42.8307 121.15 39.5078 116.816C36.1849 112.483 33.749 107.536 32.3394 102.26L26.4336 80.3486" stroke="#2540D9" stroke-width="7.5625" stroke-linecap="round" stroke-linejoin="round"/>
<defs>
<linearGradient id="paint0_linear_2577_10903" x1="50" y1="52.6481" x2="193.419" y2="52.6481" gradientUnits="userSpaceOnUse">
<stop stop-color="#F3C146"/>
<stop offset="1" stop-color="#F3C146" stop-opacity="0"/>
</linearGradient>
</defs>
</svg>
