<svg width="1920" height="1080" viewBox="0 0 1920 1080" fill="none" xmlns="http://www.w3.org/2000/svg">
<rect width="300" height="400" fill="#D9D9D9"/>
<rect width="1920" height="1080" fill="url(#paint0_linear_3374_15584)"/>
<g clip-path="url(#clip0_3374_15584)">
<path d="M1122.06 558.333H1107.83V557.371C1107.88 553.584 1107.18 549.823 1105.77 546.309C1104.36 542.795 1102.28 539.597 1099.63 536.9C1096.98 534.203 1093.82 532.062 1090.34 530.6C1086.86 529.139 1083.13 528.386 1079.36 528.386C1075.59 528.386 1071.86 529.139 1068.38 530.6C1064.9 532.062 1061.74 534.203 1059.09 536.9C1056.44 539.597 1054.36 542.795 1052.95 546.309C1051.54 549.823 1050.84 553.584 1050.89 557.371V558.328H1036.93C1036.72 557.463 1036.62 556.573 1036.65 555.683V522.641H1018.86V555.683C1018.86 556.352 1018.86 557.429 1018.82 558.37H1006.29C1005.93 558.37 1005.36 558.37 1004.93 558.333C1004.72 557.466 1004.63 556.575 1004.66 555.683V522.641H986.876V555.683C986.876 556.352 986.876 557.429 986.835 558.37H974.273C973.914 558.37 973.347 558.37 972.915 558.333C972.709 557.466 972.616 556.575 972.639 555.683V522.641H954.863V555.683C954.863 556.352 954.863 557.429 954.821 558.37C954.821 558.37 937.743 558.37 937.311 558.333C937.107 557.465 937.016 556.574 937.04 555.683V515.658C937.035 509.923 934.764 504.424 930.727 500.369C926.69 496.314 921.216 494.033 915.507 494.027H866.071C853.994 494.027 844.538 503.159 844.538 514.811V526.175H841.504C833.355 526.175 826.726 532.155 826.726 540.341V558.339C824.025 558.339 813.139 558.338 812.764 558.302C812.436 557.094 812.494 555.49 812.494 552.207V545.307C812.494 531.585 802.164 522.668 788.379 522.668H762.673V540.524H787.937C791.908 540.524 794.702 543.059 794.702 547.539V553.812C794.702 557.152 794.332 558.344 791.143 558.344H752V576.216H790.357C795.113 576.216 799.203 575.17 802.528 573.2C805.599 575.291 809.501 576.388 814.112 576.388H826.809C829.709 576.417 832.587 575.885 835.286 574.82C837.233 575.734 839.356 576.205 841.504 576.2H915.507C919.559 576.193 923.523 575.011 926.924 572.797C930.046 575.019 934.064 576.211 938.841 576.211H955.389C959.281 576.211 962.289 575.416 964.62 574.12C967.634 575.554 970.938 576.27 974.273 576.211H987.412C991.341 576.211 994.365 575.432 996.712 574.172C999.71 575.578 1002.99 576.275 1006.3 576.211H1019.41C1023.33 576.211 1026.35 575.432 1028.7 574.172C1031.7 575.578 1034.98 576.275 1038.28 576.211H1057.92C1060.58 579.285 1063.87 581.749 1067.57 583.438C1071.26 585.126 1075.27 586 1079.33 586C1083.38 586 1087.39 585.126 1091.09 583.438C1094.78 581.749 1098.07 579.285 1100.73 576.211H1125.11C1129.01 576.211 1132.76 574.654 1135.52 571.884C1138.28 569.113 1139.84 565.355 1139.85 561.433V494.027H1122.06V558.333ZM876.547 556.504C876.547 556.99 876.354 557.457 876.012 557.801C875.669 558.145 875.204 558.339 874.72 558.339H846.334C845.849 558.339 845.385 558.145 845.042 557.801C844.699 557.457 844.507 556.99 844.507 556.504V545.871C844.508 545.386 844.701 544.92 845.044 544.577C845.386 544.234 845.85 544.042 846.334 544.042H874.72C875.204 544.042 875.667 544.234 876.01 544.577C876.352 544.92 876.545 545.386 876.547 545.871V556.504ZM919.259 554.57C919.256 555.568 918.86 556.525 918.157 557.232C917.454 557.938 916.501 558.336 915.507 558.339H894.328V540.341C894.328 532.155 887.703 526.175 879.554 526.175H862.319V515.658C862.319 512.814 864.443 511.889 866.071 511.889H915.507C916.502 511.89 917.455 512.288 918.158 512.994C918.862 513.701 919.258 514.659 919.259 515.658V554.57ZM1079.32 567.424C1077.34 567.424 1075.4 566.834 1073.76 565.729C1072.11 564.625 1070.83 563.055 1070.07 561.218C1069.31 559.381 1069.12 557.36 1069.5 555.41C1069.89 553.46 1070.84 551.669 1072.24 550.264C1073.64 548.858 1075.42 547.9 1077.36 547.513C1079.3 547.125 1081.32 547.324 1083.15 548.085C1084.97 548.845 1086.54 550.134 1087.64 551.787C1088.74 553.44 1089.32 555.383 1089.32 557.371C1089.32 560.037 1088.27 562.593 1086.39 564.478C1084.51 566.363 1081.97 567.422 1079.32 567.424V567.424Z" fill="#2652D9"/>
<path d="M1168.3 494H1150.52V576.183H1168.3V494Z" fill="#2652D9"/>
<path d="M1022.68 511.572L1035.39 504.944C1035.77 504.769 1036.09 504.488 1036.32 504.136C1036.54 503.783 1036.66 503.373 1036.66 502.955C1036.66 502.536 1036.54 502.127 1036.32 501.774C1036.09 501.422 1035.77 501.141 1035.39 500.966L1022.68 494.338C1020.99 493.454 1018.87 494.562 1018.87 496.329V509.58C1018.87 511.352 1020.99 512.455 1022.68 511.572Z" fill="#2652D9"/>
<path d="M990.66 511.572L1003.34 504.944C1003.72 504.77 1004.04 504.49 1004.27 504.138C1004.5 503.785 1004.62 503.374 1004.62 502.955C1004.62 502.535 1004.5 502.125 1004.27 501.772C1004.04 501.419 1003.72 501.14 1003.34 500.966L990.64 494.338C988.943 493.454 986.825 494.562 986.825 496.329V509.58C986.846 511.352 988.964 512.455 990.66 511.572Z" fill="#2652D9"/>
<path d="M958.637 511.572L971.339 504.944C971.719 504.77 972.041 504.49 972.267 504.138C972.493 503.785 972.614 503.374 972.614 502.955C972.614 502.535 972.493 502.125 972.267 501.772C972.041 501.419 971.719 501.14 971.339 500.966L958.637 494.338C956.94 493.454 954.822 494.562 954.822 496.329V509.58C954.822 511.352 956.94 512.455 958.637 511.572Z" fill="#2652D9"/>
</g>
<defs>
<linearGradient id="paint0_linear_3374_15584" x1="-3.36252e-05" y1="1080" x2="2616.5" y2="-191" gradientUnits="userSpaceOnUse">
<stop stop-color="#020515"/>
<stop offset="0.0001" stop-color="#121950"/>
<stop offset="1" stop-color="#020515"/>
</linearGradient>
<clipPath id="clip0_3374_15584">
<rect width="416.3" height="92" fill="white" transform="translate(752 494)"/>
</clipPath>
</defs>
</svg>
