<svg width="162" height="109" viewBox="0 0 162 109" fill="none" xmlns="http://www.w3.org/2000/svg">
<path fill-rule="evenodd" clip-rule="evenodd" d="M118.723 4.63263C114.714 -1.33851 105.901 -1.25151 102.011 4.79762L62.9105 65.5908C58.6302 72.2458 63.4084 81.0002 71.321 81.0002H151.24C159.242 81.0002 164.003 72.0691 159.542 65.4258L118.723 4.63263ZM110.5 21.9997C112.525 21.9997 114.167 23.6413 114.167 25.6663V43.9997C114.167 46.0247 112.525 47.6663 110.5 47.6663C108.475 47.6663 106.833 46.0247 106.833 43.9997V25.6663C106.833 23.6413 108.475 21.9997 110.5 21.9997ZM110.5 65.9997C113.538 65.9997 116 63.5373 116 60.4997C116 57.4622 113.538 54.9997 110.5 54.9997C107.462 54.9997 105 57.4622 105 60.4997C105 63.5373 107.462 65.9997 110.5 65.9997Z" fill="url(#paint0_linear_1868_11473)"/>
<path d="M0.148438 90.6749L23.0726 60.2204H29.6033V89.6086H36.5339V93.3405C36.5339 94.0957 36.3117 94.6955 35.8675 95.1397C35.4676 95.584 34.9123 95.8061 34.2015 95.8061H29.6033V108.001H23.006V95.8061H3.48044C2.81404 95.8061 2.21428 95.6507 1.68116 95.3397C1.19246 94.9843 0.881478 94.4511 0.748197 93.7403L0.148438 90.6749ZM23.006 89.6086V70.7495L8.87828 89.6086H23.006Z" fill="#2540D9"/>
<path d="M39.4712 84.1441C39.4712 79.968 39.9155 76.3473 40.804 73.2818C41.737 70.2164 42.9809 67.6841 44.5359 65.6849C46.1352 63.6857 48.0012 62.1974 50.1336 61.22C52.2661 60.2426 54.5541 59.7539 56.9976 59.7539C59.4855 59.7539 61.7956 60.2426 63.9281 61.22C66.0606 62.1974 67.9043 63.6857 69.4592 65.6849C71.0142 67.6841 72.2359 70.2164 73.1244 73.2818C74.0574 76.3473 74.5239 79.968 74.5239 84.1441C74.5239 88.2758 74.0574 91.8744 73.1244 94.9398C72.2359 98.0053 71.0142 100.538 69.4592 102.537C67.9043 104.536 66.0606 106.046 63.9281 107.068C61.7956 108.046 59.4855 108.534 56.9976 108.534C54.5541 108.534 52.2661 108.046 50.1336 107.068C48.0012 106.046 46.1352 104.536 44.5359 102.537C42.9809 100.538 41.737 98.0053 40.804 94.9398C39.9155 91.8744 39.4712 88.2758 39.4712 84.1441ZM46.9349 84.1441C46.9349 87.5206 47.2015 90.3639 47.7346 92.6741C48.3121 94.9398 49.0674 96.7835 50.0004 98.2052C50.9333 99.5824 51.9996 100.582 53.1991 101.204C54.3986 101.782 55.6648 102.07 56.9976 102.07C58.3304 102.07 59.5965 101.782 60.796 101.204C62.04 100.582 63.1062 99.5824 63.9948 98.2052C64.9277 96.7835 65.6608 94.9398 66.1939 92.6741C66.7714 90.3639 67.0602 87.5206 67.0602 84.1441C67.0602 80.7233 66.7714 77.88 66.1939 75.6142C65.6608 73.304 64.9277 71.4603 63.9948 70.0831C63.1062 68.6615 62.04 67.6619 60.796 67.0843C59.5965 66.4623 58.3304 66.1513 56.9976 66.1513C55.6648 66.1513 54.3986 66.4623 53.1991 67.0843C51.9996 67.6619 50.9333 68.6615 50.0004 70.0831C49.0674 71.4603 48.3121 73.304 47.7346 75.6142C47.2015 77.88 46.9349 80.7233 46.9349 84.1441Z" fill="#2540D9"/>
<path d="M77.4613 90.6749L100.385 60.2204H106.916V89.6086H113.847V93.3405C113.847 94.0957 113.625 94.6955 113.18 95.1397C112.78 95.584 112.225 95.8061 111.514 95.8061H106.916V108.001H100.319V95.8061H80.7933C80.1269 95.8061 79.5271 95.6507 78.994 95.3397C78.5053 94.9843 78.1943 94.4511 78.061 93.7403L77.4613 90.6749ZM100.319 89.6086V70.7495L86.1911 89.6086H100.319Z" fill="#2540D9"/>
<defs>
<linearGradient id="paint0_linear_1868_11473" x1="53" y1="44.6481" x2="196.419" y2="44.6481" gradientUnits="userSpaceOnUse">
<stop stop-color="#F3C146"/>
<stop offset="1" stop-color="#F3C146" stop-opacity="0"/>
</linearGradient>
</defs>
</svg>
