<svg width="25" height="25" viewBox="0 0 25 25" fill="none" xmlns="http://www.w3.org/2000/svg">
<path d="M19.6852 10.861L8.54599 4.48427C8.22 4.27973 7.85268 4.16846 7.47757 4.1606C7.10246 4.15275 6.73152 4.24856 6.39871 4.4393C6.0659 4.63004 5.78182 4.90962 5.57241 5.25247C5.36301 5.59532 5.23497 5.99051 5.20001 6.40191V19.1091C5.23497 19.5205 5.36301 19.9157 5.57241 20.2586C5.78182 20.6014 6.0659 20.881 6.39871 21.0717C6.73152 21.2625 7.10246 21.3583 7.47757 21.3504C7.85268 21.3426 8.22 21.2313 8.54599 21.0268L19.6852 14.6501C20.0178 14.4825 20.2997 14.2132 20.4973 13.8743C20.695 13.5353 20.8 13.141 20.8 12.7382C20.8 12.3354 20.695 11.9411 20.4973 11.6021C20.2997 11.2632 20.0178 10.9939 19.6852 10.8263V10.861Z" fill="white"/>
</svg>
