<svg width="500" height="750" viewBox="0 0 500 750" fill="none" xmlns="http://www.w3.org/2000/svg">
<rect width="500" height="750" fill="url(#paint0_linear_3387_15583)"/>
<g clip-path="url(#clip0_3387_15583)">
<path d="M333.052 383.868H325.781V383.376C325.807 381.441 325.45 379.52 324.731 377.725C324.012 375.929 322.945 374.296 321.592 372.918C320.239 371.54 318.627 370.446 316.85 369.7C315.072 368.953 313.165 368.569 311.238 368.569C309.312 368.569 307.404 368.953 305.627 369.7C303.85 370.446 302.238 371.54 300.885 372.918C299.532 374.296 298.465 375.929 297.745 377.725C297.026 379.52 296.669 381.441 296.695 383.376V383.865H289.563C289.455 383.423 289.406 382.969 289.417 382.514V365.634H280.333V382.514C280.333 382.855 280.333 383.406 280.311 383.886H273.907C273.724 383.886 273.434 383.886 273.216 383.868C273.109 383.425 273.062 382.969 273.075 382.514V365.634H263.991V382.514C263.991 382.855 263.991 383.406 263.97 383.886H257.552C257.369 383.886 257.079 383.886 256.859 383.868C256.754 383.424 256.706 382.969 256.718 382.514V365.634H247.637V382.514C247.637 382.855 247.637 383.406 247.615 383.886C247.615 383.886 238.89 383.886 238.67 383.868C238.565 383.424 238.519 382.969 238.531 382.514V362.066C238.529 359.136 237.369 356.327 235.306 354.255C233.244 352.184 230.447 351.018 227.531 351.016H202.276C196.105 351.016 191.275 355.681 191.275 361.633V367.439H189.725C185.562 367.439 182.175 370.494 182.175 374.676V383.87C180.795 383.87 175.234 383.87 175.043 383.852C174.875 383.235 174.904 382.415 174.904 380.738V377.213C174.904 370.203 169.627 365.647 162.585 365.647H149.452V374.769H162.359C164.388 374.769 165.815 376.064 165.815 378.353V381.558C165.815 383.264 165.626 383.873 163.997 383.873H144V393.003H163.595C166.025 393.003 168.115 392.469 169.813 391.462C171.382 392.531 173.376 393.091 175.731 393.091H182.218C183.699 393.106 185.169 392.834 186.548 392.29C187.543 392.757 188.627 392.998 189.725 392.995H227.531C229.601 392.991 231.626 392.388 233.363 391.257C234.958 392.392 237.011 393.001 239.451 393.001H247.905C249.894 393.001 251.43 392.595 252.621 391.932C254.161 392.665 255.849 393.031 257.552 393.001H264.265C266.272 393.001 267.817 392.603 269.016 391.959C270.547 392.677 272.222 393.034 273.913 393.001H280.609C282.614 393.001 284.158 392.603 285.357 391.959C286.889 392.677 288.564 393.034 290.254 393.001H300.284C301.645 394.571 303.326 395.83 305.213 396.693C307.099 397.555 309.148 398.002 311.221 398.002C313.294 398.002 315.343 397.555 317.229 396.693C319.116 395.83 320.797 394.571 322.158 393.001H334.61C336.604 393.001 338.517 392.206 339.929 390.79C341.34 389.375 342.135 387.455 342.139 385.451V351.016H333.052V383.868ZM207.627 382.933C207.627 383.181 207.529 383.42 207.354 383.596C207.179 383.771 206.941 383.87 206.694 383.87H192.192C191.945 383.87 191.707 383.771 191.532 383.596C191.357 383.42 191.259 383.181 191.259 382.933V377.501C191.26 377.253 191.358 377.015 191.533 376.84C191.708 376.665 191.945 376.567 192.192 376.567H206.694C206.941 376.567 207.178 376.665 207.353 376.84C207.528 377.015 207.626 377.253 207.627 377.501V382.933ZM229.447 381.945C229.446 382.455 229.244 382.944 228.885 383.305C228.525 383.666 228.039 383.869 227.531 383.87H216.711V374.676C216.711 370.494 213.327 367.439 209.164 367.439H200.359V362.066C200.359 360.613 201.444 360.141 202.276 360.141H227.531C228.039 360.141 228.526 360.344 228.885 360.705C229.245 361.066 229.447 361.556 229.447 362.066V381.945ZM311.216 388.511C310.205 388.511 309.216 388.21 308.376 387.646C307.535 387.082 306.88 386.28 306.493 385.341C306.106 384.403 306.005 383.37 306.202 382.374C306.399 381.378 306.886 380.463 307.601 379.745C308.316 379.027 309.227 378.538 310.218 378.34C311.21 378.141 312.238 378.243 313.172 378.632C314.106 379.02 314.905 379.679 315.466 380.523C316.028 381.368 316.328 382.361 316.328 383.376C316.327 384.738 315.788 386.044 314.83 387.007C313.871 387.97 312.571 388.511 311.216 388.511Z" fill="#2652D9"/>
<path d="M356.676 351H347.592V392.985H356.676V351Z" fill="#2652D9"/>
<path d="M282.285 359.979L288.776 356.593C288.97 356.503 289.133 356.36 289.248 356.18C289.363 356 289.424 355.79 289.424 355.576C289.424 355.363 289.363 355.153 289.248 354.973C289.133 354.793 288.97 354.65 288.776 354.56L282.285 351.174C281.418 350.723 280.336 351.289 280.336 352.192V358.961C280.336 359.866 281.418 360.43 282.285 359.979Z" fill="#2652D9"/>
<path d="M265.924 359.979L272.403 356.593C272.597 356.504 272.762 356.361 272.877 356.181C272.993 356 273.054 355.791 273.054 355.576C273.054 355.362 272.993 355.152 272.877 354.972C272.762 354.792 272.597 354.649 272.403 354.56L265.913 351.174C265.047 350.723 263.965 351.289 263.965 352.192V358.961C263.975 359.866 265.057 360.43 265.924 359.979Z" fill="#2652D9"/>
<path d="M249.564 359.979L256.053 356.593C256.247 356.504 256.412 356.361 256.527 356.181C256.643 356 256.704 355.791 256.704 355.576C256.704 355.362 256.643 355.152 256.527 354.972C256.412 354.792 256.247 354.649 256.053 354.56L249.564 351.174C248.697 350.723 247.615 351.289 247.615 352.192V358.961C247.615 359.866 248.697 360.43 249.564 359.979Z" fill="#2652D9"/>
</g>
<defs>
<linearGradient id="paint0_linear_3387_15583" x1="-8.75657e-06" y1="750" x2="815.115" y2="601.518" gradientUnits="userSpaceOnUse">
<stop stop-color="#020515"/>
<stop offset="0.0001" stop-color="#121950"/>
<stop offset="1" stop-color="#020515"/>
</linearGradient>
<clipPath id="clip0_3387_15583">
<rect width="212.675" height="47" fill="white" transform="translate(144 351)"/>
</clipPath>
</defs>
</svg>
