  <svg width="20" height="20" viewBox="0 0 25 25" fill="none" xmlns="http://www.w3.org/2000/svg">
  <path
    d="M22.2755 11.8361L8.22266 3.2423C8.10436 3.16933 7.96874 3.12924 7.82978 3.12617C7.69082 3.12309 7.55355 3.15715 7.43214 3.22482C7.31073 3.29249 7.20958 3.39133 7.13911 3.51113C7.06864 3.63094 7.0314 3.76737 7.03125 3.90637V21.0939C7.0314 21.2329 7.06864 21.3693 7.13911 21.4891C7.20958 21.6089 7.31073 21.7077 7.43214 21.7754C7.55355 21.8431 7.69082 21.8771 7.82978 21.8741C7.96874 21.871 8.10436 21.8309 8.22266 21.7579L22.2755 13.1642C22.3909 13.0959 22.4865 12.9988 22.5529 12.8824C22.6193 12.7659 22.6543 12.6342 22.6543 12.5001C22.6543 12.3661 22.6193 12.2343 22.5529 12.1179C22.4865 12.0014 22.3909 11.9043 22.2755 11.8361V11.8361Z"
    stroke="white"
    stroke-width="1.56615"
    stroke-linecap="round"
    stroke-linejoin="round"
  />
</svg>