<svg width="25" height="25" viewBox="0 0 25 25" fill="none" xmlns="http://www.w3.org/2000/svg">
<path d="M10.6694 9H11.4707V13.4071H12.4278V14.3197H9.37097V13.4071H10.4171C10.4171 12.8729 10.4171 12.4278 10.4171 12.0716C10.4171 11.7106 10.4171 11.4187 10.4171 11.1962C10.4171 10.9686 10.4171 10.8029 10.4171 10.6991C10.4221 10.5902 10.4245 10.5235 10.4245 10.4987C10.3355 10.5779 10.2489 10.6521 10.1649 10.7213C10.0808 10.7906 9.99668 10.8623 9.91259 10.9365C9.81366 11.0057 9.71474 11.0403 9.61581 11.0403C9.49216 11.0403 9.38828 10.9835 9.3042 10.8697L9 10.4394L10.6694 9Z" fill="white"/>
<path d="M13.5042 13.2439C13.6031 13.1104 13.7119 13.0436 13.8306 13.0436C13.9444 13.0436 14.0779 13.1005 14.2313 13.2142C14.3005 13.2637 14.3821 13.3082 14.4761 13.3478C14.5701 13.3874 14.6938 13.4071 14.8471 13.4071C15.1439 13.4071 15.3714 13.3255 15.5297 13.1623C15.6929 12.9941 15.7745 12.7765 15.7745 12.5094C15.7745 12.2621 15.7053 12.0667 15.5668 11.9233C15.4283 11.7798 15.2181 11.7081 14.9361 11.7081C14.8224 11.7081 14.7012 11.7205 14.5726 11.7452C14.444 11.7699 14.303 11.8045 14.1497 11.8491L13.5116 11.6562L13.9716 9H16.6871V9.48968C16.6871 9.63807 16.6426 9.76173 16.5536 9.86065C16.4645 9.95958 16.3161 10.009 16.1084 10.009H14.7655L14.6319 10.7955C14.7061 10.7856 14.7803 10.7782 14.8545 10.7732C14.9287 10.7634 15.0054 10.7584 15.0845 10.7584C15.3714 10.7584 15.6237 10.8029 15.8413 10.892C16.0589 10.976 16.2419 11.0948 16.3903 11.2481C16.5387 11.4014 16.65 11.582 16.7242 11.7897C16.7984 11.9975 16.8355 12.2225 16.8355 12.4649C16.8355 12.7468 16.786 13.0065 16.6871 13.2439C16.5882 13.4764 16.4522 13.6767 16.279 13.8449C16.1109 14.0131 15.9105 14.1441 15.6781 14.2381C15.4456 14.3321 15.1958 14.3791 14.9287 14.3791C14.7556 14.3791 14.5874 14.3593 14.4242 14.3197C14.2659 14.2802 14.1126 14.2282 13.9642 14.1639C13.8207 14.0996 13.6847 14.0254 13.5561 13.9413C13.4275 13.8523 13.3113 13.7608 13.2074 13.6668L13.5042 13.2439Z" fill="white"/>
<path d="M7.70996 9.53674H4.00024V5.82703" stroke="white" stroke-width="1.48389" stroke-linecap="round" stroke-linejoin="round"/>
<path d="M7.15417 17.93C8.29529 19.072 9.7495 19.85 11.3328 20.1655C12.9162 20.4809 14.5575 20.3197 16.0492 19.7021C17.5409 19.0846 18.8159 18.0386 19.713 16.6963C20.61 15.354 21.0889 13.7758 21.0889 12.1614C21.0889 10.5469 20.61 8.96875 19.713 7.62647C18.8159 6.28419 17.5409 5.23813 16.0492 4.62061C14.5575 4.00309 12.9162 3.84186 11.3328 4.15731C9.7495 4.47276 8.29529 5.25072 7.15417 6.39277L4.00091 9.53676" stroke="white" stroke-width="1.48389" stroke-linecap="round" stroke-linejoin="round"/>
</svg>
