 <svg width="20" height="20" viewBox="0 0 25 25" fill="none" xmlns="http://www.w3.org/2000/svg">
   <path
     d="M19.6325 3.92676H16.0987C15.6651 3.92676 15.3135 4.27834 15.3135 4.71203V20.4175C15.3135 20.8512 15.6651 21.2027 16.0987 21.2027H19.6325C20.0662 21.2027 20.4177 20.8512 20.4177 20.4175V4.71203C20.4177 4.27834 20.0662 3.92676 19.6325 3.92676Z"
     stroke="white"
     stroke-width="1.57054"
     stroke-linecap="round"
     stroke-linejoin="round"
   />
   <path
     d="M9.03091 3.92676H5.49719C5.06349 3.92676 4.71191 4.27834 4.71191 4.71203V20.4175C4.71191 20.8512 5.06349 21.2027 5.49719 21.2027H9.03091C9.4646 21.2027 9.81618 20.8512 9.81618 20.4175V4.71203C9.81618 4.27834 9.4646 3.92676 9.03091 3.92676Z"
     stroke="white"
     stroke-width="1.57054"
     stroke-linecap="round"
     stroke-linejoin="round"
   />
 </svg>