<svg width="25" height="25" viewBox="0 0 25 25" fill="none" xmlns="http://www.w3.org/2000/svg">
<path d="M9.53363 9H10.3349V13.4071H11.292V14.3197H8.23523V13.4071H9.28137C9.28137 12.8729 9.28137 12.4278 9.28137 12.0716C9.28137 11.7106 9.28137 11.4187 9.28137 11.1962C9.28137 10.9686 9.28137 10.8029 9.28137 10.6991C9.28632 10.5902 9.28879 10.5235 9.28879 10.4987C9.19976 10.5779 9.1132 10.6521 9.02911 10.7213C8.94502 10.7906 8.86094 10.8623 8.77685 10.9365C8.67792 11.0057 8.579 11.0403 8.48007 11.0403C8.35641 11.0403 8.25254 10.9835 8.16845 10.8697L7.86426 10.4394L9.53363 9Z" fill="white"/>
<path d="M12.3684 13.2439C12.4674 13.1104 12.5762 13.0436 12.6949 13.0436C12.8087 13.0436 12.9422 13.1005 13.0955 13.2142C13.1648 13.2637 13.2464 13.3082 13.3404 13.3478C13.4344 13.3874 13.558 13.4071 13.7114 13.4071C14.0081 13.4071 14.2357 13.3255 14.3939 13.1623C14.5572 12.9941 14.6388 12.7765 14.6388 12.5094C14.6388 12.2621 14.5695 12.0667 14.431 11.9233C14.2925 11.7798 14.0823 11.7081 13.8004 11.7081C13.6866 11.7081 13.5654 11.7205 13.4368 11.7452C13.3082 11.7699 13.1673 11.8045 13.0139 11.8491L12.3759 11.6562L12.8359 9H15.5514V9.48968C15.5514 9.63807 15.5069 9.76173 15.4178 9.86065C15.3288 9.95958 15.1804 10.009 14.9727 10.009H13.6297L13.4962 10.7955C13.5704 10.7856 13.6446 10.7782 13.7188 10.7732C13.793 10.7634 13.8696 10.7584 13.9488 10.7584C14.2357 10.7584 14.4879 10.8029 14.7056 10.892C14.9232 10.976 15.1062 11.0948 15.2546 11.2481C15.403 11.4014 15.5143 11.582 15.5885 11.7897C15.6627 11.9975 15.6998 12.2225 15.6998 12.4649C15.6998 12.7468 15.6503 13.0065 15.5514 13.2439C15.4524 13.4764 15.3164 13.6767 15.1433 13.8449C14.9751 14.0131 14.7748 14.1441 14.5423 14.2381C14.3099 14.3321 14.0601 14.3791 13.793 14.3791C13.6198 14.3791 13.4517 14.3593 13.2884 14.3197C13.1302 14.2802 12.9768 14.2282 12.8284 14.1639C12.685 14.0996 12.549 14.0254 12.4204 13.9413C12.2918 13.8523 12.1755 13.7608 12.0717 13.6668L12.3684 13.2439Z" fill="white"/>
<path d="M17.3789 9.53674H21.0886V5.82703" stroke="white" stroke-width="1.48389" stroke-linecap="round" stroke-linejoin="round"/>
<path d="M17.9347 17.93C16.7936 19.072 15.3394 19.85 13.756 20.1655C12.1727 20.4809 10.5314 20.3197 9.03969 19.7021C7.54801 19.0846 6.27298 18.0386 5.3759 16.6963C4.47882 15.354 4 13.7758 4 12.1614C4 10.5469 4.47882 8.96875 5.3759 7.62647C6.27298 6.28419 7.54801 5.23813 9.03969 4.62061C10.5314 4.00309 12.1727 3.84186 13.756 4.15731C15.3394 4.47276 16.7936 5.25072 17.9347 6.39277L21.088 9.53676" stroke="white" stroke-width="1.48389" stroke-linecap="round" stroke-linejoin="round"/>
</svg>
